{"title":"Avatar 3D  Anaglyph - BluRay 720p Dual Audio [Eng-Hindi] AAC [ T","uid":15251204,"size":1777572794,"categoryP":"video","categoryS":"hd___movies","magnet":"?xt=urn:btih:81e33feb95b1ef89d4a6661aa1ecd61893610eed&amp;dn=Avatar+3D++Anaglyph+-+BluRay+720p+Dual+Audio+%5BEng-Hindi%5D+AAC+%5B+T&amp;tr=udp%3A%2F%2Ftracker.leechers-paradise.org%3A6969&amp;tr=udp%3A%2F%2Fzer0day.ch%3A1337&amp;tr=udp%3A%2F%2Fopen.demonii.com%3A1337&amp;tr=udp%3A%2F%2Ftracker.coppersurfer.tk%3A6969&amp;tr=udp%3A%2F%2Fexodus.desync.com%3A6969","seeders":0,"leechers":1,"uploader":"MdTaRa","files":1,"time":1468054266,"description":"===================================================================\r\nGeneral\r\nComplete name               : Avatar 3D  Anaglyph - BluRay 720p Dual Audio [Eng-Hindi] AAC [ TaRa ].mkv\r\nFormat                      : Matroska\r\nFormat version              : Version 4 / Version 2\r\nFile size                   : 1.66 GiB\r\nDuration                    : 2h 35mn\r\nOverall bit rate mode       : Variable\r\nOverall bit rate            : 1 528 Kbps\r\n===================================================================\r\nVideo\r\nID                          : 1\r\nFormat                      : AVC\r\nFormat/Info                 : Advanced Video Codec\r\nFormat profile              :   \r\nFormat settings, CABAC      : Yes\r\nFormat settings, ReFrames   : 3 frames\r\nFrame mode                  : Frame doubling\r\nCodec ID                    : V_MPEG4/ISO/AVC\r\nDuration                    : 2h 35mn\r\nBit rate mode               : Variable\r\nBit rate                    : 1 302 Kbps\r\nMaximum bit rate            : 40.0 Mbps\r\nWidth                       : 1 280 pixels\r\nHeight                      : 720 pixels\r\nDisplay aspect ratio        : 16:9\r\nFrame rate mode             : Constant\r\nFrame rate                  : 25.000 fps\r\nColor space                 : YUV\r\nChroma subsampling          : 4:2:0\r\nBit depth                   : 8 bits\r\nScan type                   : Progressive\r\nBits/(Pixel*Frame)          : 0.057\r\nStream size                 : 1.41 GiB (85%)\r\nTitle                       : .....::::: TaRa :::::....\r\nLanguage                    : English\r\nDefault                     : Yes\r\nForced                      : No\r\nColor range                 : Limited\r\nColor primaries             : BT.709\r\nTransfer characteristics    : BT.709\r\nMatrix coefficients         : BT.709\r\n===================================================================\r\nAudio #1\r\nID                          : 2\r\nFormat                      : AAC\r\nFormat/Info                 : Advanced Audio Codec\r\nFormat profile              : LC\r\nCodec ID                    : A_AAC\r\nDuration                    : 2h 35mn\r\nBit rate                    : 96.0 Kbps\r\nChannel(s)                  : 2 channels\r\nChannel positions           : Front: L R\r\nSampling rate               : 44.1 KHz\r\nFrame rate                  : 43.066 fps (1024 spf)\r\nCompression mode            : Lossy\r\nDelay relative to video     : 10ms\r\nStream size                 : 106 MiB (6%)\r\nTitle                       : .....::::: TaRa :::::.... [Hindi]\r\nLanguage                    : Hindi\r\nDefault                     : Yes\r\nForced                      : No\r\n===================================================================\r\nAudio #2\r\nID                          : 3\r\nFormat                      : MPEG Audio\r\nFormat version              : Version 1\r\nFormat profile              : Layer 3\r\nMode                        : Joint stereo\r\nMode extension              : MS Stereo\r\nCodec ID                    : A_MPEG/L3\r\nCodec ID/Hint               : MP3\r\nDuration                    : 2h 35mn\r\nBit rate mode               : Constant\r\nBit rate                    : 128 Kbps\r\nChannel(s)                  : 2 channels\r\nSampling rate               : 44.1 KHz\r\nFrame rate                  : 38.281 fps (1152 spf)\r\nCompression mode            : Lossy\r\nStream size                 : 142 MiB (8%)\r\nTitle                       : .....::::: TaRa :::::.... [English]\r\nWriting library             : LAME3.90.3\r\nLanguage                    : English\r\nDefault                     : No\r\nForced                      : No\r\n=================================================================== \nhttp://picoolio.net/image/IJH3","torrent":{"xt":"urn:btih:81e33feb95b1ef89d4a6661aa1ecd61893610eed","amp;dn":"Avatar+3D++Anaglyph+-+BluRay+720p+Dual+Audio+%5BEng-Hindi%5D+AAC+%5B+T","amp;tr":["udp%3A%2F%2Ftracker.leechers-paradise.org%3A6969","udp%3A%2F%2Fzer0day.ch%3A1337","udp%3A%2F%2Fopen.demonii.com%3A1337","udp%3A%2F%2Ftracker.coppersurfer.tk%3A6969","udp%3A%2F%2Fexodus.desync.com%3A6969"],"infoHash":"81e33feb95b1ef89d4a6661aa1ecd61893610eed","infoHashBuffer":{"type":"Buffer","data":[129,227,63,235,149,177,239,137,212,166,102,26,161,236,214,24,147,97,14,237]},"announce":[],"urlList":[]}}